<?xml version="1.0" encoding="utf-8"?>
<!-- Generator: Adobe Illustrator 18.1.1, SVG Export Plug-In . SVG Version: 6.00 Build 0)  -->
<svg version="1.1" id="Layer_1" xmlns="http://www.w3.org/2000/svg" xmlns:xlink="http://www.w3.org/1999/xlink" x="0px" y="0px"
	 viewBox="0 0 116.1 96.6" enable-background="new 0 0 116.1 96.6" xml:space="preserve">
<g>
	<path fill="#3DB64E" d="M48.8,68.2"/>
	<path fill="#3DB64E" d="M86.5,65.1c-21.3,4-43.4,0.3-55.3-16c2.1,0.2,2.9,2.7,5.3,3.3c0.2-1.7,1.1-3.7-0.5-4.4
		c-2.1-0.9-1.4-1.5-0.3-2.5c3.3-2.9,6.6-5.8,9.8-8.8c1.2-1.1,2-1,3.2,0c3.2,3,6.5,5.8,9.8,8.7c0.9,0.8,1.9,1.7-0.2,2.2
		c-0.7,0.2-1,0.7-1,1.4c0,4.5,0,9.1,0,14c3.5-2.5,5.3-13.9,3.8-19.1C55.1,27.7,28.3,28,22.7,14.2c-3.1,9.5-5.4,18.7-5.3,28.3
		C17.7,56.7,29,64.3,36.1,67.7C48.9,73.9,86.5,65.1,86.5,65.1z"/>
	<path fill="#F0B63D" d="M41.1,25.8c4.4-8.6,10.1-16.6,24.1-18.5c-2.4,3.1-4.4,6-4.7,9.8c-0.5,5.9,1.8,11.2,4.3,16
		c10.2,16.7,9.7,22.7-4.7,29c1.2-2.5,3.3-5.2,3.2-15.4C61.2,34.1,48.9,30,41.1,25.8z"/>
	<path fill="#3DB64E" d="M49.7,60.7c-3.6-1.5-6.3-2.5-6-6.5c0.2-2,0.4-3.2,2.9-3.2c2.5,0,3.4,0.8,3.1,3.2
		C49.5,56.2,49.7,58.1,49.7,60.7z"/>
	<path fill="#F0B63D" d="M46.6,45.7c-1.4-0.2-2.2-1-2.1-2.5c0.1-1.2,0.9-2.1,2.2-2c1.5,0.1,2.2,1,2.1,2.5C48.8,45,48,45.7,46.6,45.7
		z"/>
</g>
<path fill="#99FF99" d="M61.9,20.3c8.1-5.4,13.2-10.2,26.3-5c-3.7,1.6-12.3,6.1-4.5,23.9c9.9,17.9,5.7,28.4-23.2,24.6
	c11.4-5.1,12.7-9,13.3-12.2C73.8,41.3,60.5,27.2,61.9,20.3z"/>
<text transform="matrix(1 0 0 1 8.75 81.1317)" font-family="'Comfortaa-Regular'" font-size="12">Cuidadoras 365</text>
<text transform="matrix(1 0 0 1 10 87.786)" fill="#66CCFF" font-family="'Comfortaa-Regular'" font-size="5.4532">Tu portal para servicios del hogar</text>
</svg>
