<?xml version="1.0" encoding="utf-8"?>
<!-- Generator: Adobe Illustrator 18.1.1, SVG Export Plug-In . SVG Version: 6.00 Build 0)  -->
<svg version="1.1" id="Layer_1" xmlns="http://www.w3.org/2000/svg" xmlns:xlink="http://www.w3.org/1999/xlink" x="0px" y="0px"
	 viewBox="0 0 612 792" enable-background="new 0 0 612 792" xml:space="preserve">
<g>
	<path fill="#3DB64E" d="M228.1,493.9"/>
	<path fill="#3DB64E" d="M426.3,515.5c-114.2-0.5-224.9-41.8-270.3-138c10.7,3.1,29.4,40.5,41.3,46l-0.1-22.1c0-5.8-7.5-2.5-4.6-5.4
		l49.5-50l42.2,50c3.1,3.1-4.3-0.8-4.3,5.5l0,67.7c20.6-9.4,38.6-60.4,36-88.8c-14.9-89.8-153.9-115-169.1-192
		c-25.5,46.1-46.6,91.4-55.7,141.2c-12.6,73.8,38.3,124.4,71.6,149.1C222.9,523.5,426.3,515.5,426.3,515.5z"/>
	<path fill="#99FF99" d="M230.6,266.8c31.4-40.1,68.8-75.8,143.2-71.7c-15.5,13.7-28.8,26.7-34.1,46c-8.5,30-1.9,59.8,6.3,87.1
		c36.1,96.6,27.6,127.2-53.3,145.4c8.7-11.7,22.3-23.6,31.9-76.5C326.3,329.8,266.7,296.3,230.6,266.8z"/>
	<path fill="#3DB64E" d="M254.3,464.6c-17.1-11.4-26.1-17.1-26.2-26.4c0-3.5,2.6-12.5,14-12.5c11.5,0,11.1,9.8,11.5,14.3
		C254.6,450.6,254.3,464.6,254.3,464.6z"/>
	<path fill="#F0B63D" d="M241.9,397.9c-7.4-1-11.6-5.2-11.1-13.1c0.5-6.3,4.7-11.1,11.6-10.6c7.9,0.5,11.6,5.2,11.1,13.1
		C253.5,394.2,249.3,397.9,241.9,397.9z"/>
</g>
<path fill="#F0B63D" d="M343.7,259.1c47.3-19.9,78.5-39.6,141.1,0.4c-20.7,4.6-69.8,19.3-47.1,119.2
	c33.4,102.5,1.2,152.7-144.6,104.2c64.1-15,74.7-33.9,81-49.9C384.3,379.6,329.6,293.4,343.7,259.1z"/>
<text transform="matrix(1 0 0 1 46.1263 569.0665)" font-family="'Comfortaa-Regular'" font-size="63.2558">Cuidadoras 365</text>
<text transform="matrix(1 0 0 1 52.7143 604.1458)" fill="#66CCFF" font-family="'Comfortaa-Regular'" font-size="28.7456">Tu portal para servicios del hogar</text>
</svg>
