<?xml version="1.0" encoding="utf-8"?>
<!-- Generator: Adobe Illustrator 18.1.1, SVG Export Plug-In . SVG Version: 6.00 Build 0)  -->
<svg version="1.1" id="Layer_1" xmlns="http://www.w3.org/2000/svg" xmlns:xlink="http://www.w3.org/1999/xlink" x="0px" y="0px"
	 viewBox="0 0 74.3 67.3" enable-background="new 0 0 74.3 67.3" xml:space="preserve">
<g>
	<path fill="#3DB64E" d="M32.8,63.3"/>
	<path fill="#3DB64E" d="M70.5,60.2c-21.3,4-43.4,0.3-55.3-16c2.1,0.2,2.9,2.7,5.3,3.3c0.2-1.7,1.1-3.7-0.5-4.4
		c-2.1-0.9-1.4-1.5-0.3-2.5c3.3-2.9,6.6-5.8,9.8-8.8c1.2-1.1,2-1,3.2,0c3.2,3,6.5,5.8,9.8,8.7c0.9,0.8,1.9,1.7-0.2,2.2
		c-0.7,0.2-1,0.7-1,1.4c0,4.5,0,9.1,0,14c3.5-2.5,5.3-13.9,3.8-19.1C39.1,22.8,12.3,23.1,6.7,9.3C3.7,18.8,1.3,28,1.5,37.6
		C1.7,51.9,13,59.4,20.1,62.8C32.9,69,70.5,60.2,70.5,60.2z"/>
	<path fill="#99FF99" d="M25.1,20.9c4.4-8.6,10.1-16.6,24.1-18.5c-2.4,3.1-4.4,6-4.7,9.8c-0.5,5.9,1.8,11.2,4.3,16
		c10.2,16.7,9.7,22.7-4.7,29c1.2-2.5,3.3-5.2,3.2-15.4C45.2,29.3,32.9,25.1,25.1,20.9z"/>
	<path fill="#3DB64E" d="M33.7,55.8c-3.6-1.5-6.3-2.5-6-6.5c0.2-2,0.4-3.2,2.9-3.2c2.5,0,3.4,0.8,3.1,3.2
		C33.5,51.3,33.7,53.3,33.7,55.8z"/>
	<path fill="#F0B63D" d="M30.6,40.8c-1.4-0.2-2.2-1-2.1-2.5c0.1-1.2,0.9-2.1,2.2-2c1.5,0.1,2.2,1,2.1,2.5
		C32.8,40.1,32,40.8,30.6,40.8z"/>
</g>
<path fill="#F0B63D" d="M45.9,15.4c8.1-5.4,13.2-10.2,26.3-5c-3.7,1.6-12.3,6.1-4.5,23.9c9.9,17.9,5.7,28.4-23.2,24.6
	c11.4-5.1,12.7-9,13.3-12.2C57.8,36.4,44.5,22.3,45.9,15.4z"/>
</svg>
