<?xml version="1.0" encoding="utf-8"?>
<!-- Generator: Adobe Illustrator 18.1.1, SVG Export Plug-In . SVG Version: 6.00 Build 0)  -->
<svg version="1.1" id="Layer_1" xmlns="http://www.w3.org/2000/svg" xmlns:xlink="http://www.w3.org/1999/xlink" x="0px" y="0px"
	 viewBox="0 0 612 792" enable-background="new 0 0 612 792" xml:space="preserve">
<g>
	<path fill="#3DB64E" d="M257.2,500.9"/>
	<path fill="#3DB64E" d="M456,484.6c-112.3,21.1-228.8,1.6-291.5-84.3c11.1,1.1,15.3,14.2,27.9,17.4c1.1-9,5.8-19.5-2.6-23.2
		c-11.1-4.7-7.4-7.9-1.6-13.2c17.4-15.3,34.8-30.6,51.7-46.4c6.3-5.8,10.5-5.3,16.9,0c16.9,15.8,34.3,30.6,51.7,45.9
		c4.7,4.2,10,9-1.1,11.6c-3.7,1.1-5.3,3.7-5.3,7.4c0,23.7,0,48,0,73.8c18.4-13.2,27.9-73.3,20-100.7
		c-31.6-85.4-172.9-83.8-202.4-156.6c-16.3,50.1-28.5,98.6-27.9,149.2c1.6,74.9,61.1,114.9,98.6,132.8
		C257.8,530.9,456,484.6,456,484.6z"/>
	<path fill="#99FF99" d="M216.7,277.4c23.2-45.3,53.2-87.5,127-97.5c-12.7,16.3-23.2,31.6-24.8,51.7c-2.6,31.1,9.5,59,22.7,84.3
		c53.8,88,51.1,119.7-24.8,152.9c6.3-13.2,17.4-27.4,16.9-81.2C322.6,321.1,257.8,299.5,216.7,277.4z"/>
	<path fill="#3DB64E" d="M262,461.4c-19-7.9-33.2-13.2-31.6-34.3c1.1-10.5,2.1-16.9,15.3-16.9c13.2,0,17.9,4.2,16.3,16.9
		C260.9,437.6,262,447.7,262,461.4z"/>
	<path fill="#F0B63D" d="M245.6,382.3c-7.4-1.1-11.6-5.3-11.1-13.2c0.5-6.3,4.7-11.1,11.6-10.5c7.9,0.5,11.6,5.3,11.1,13.2
		C257.2,378.6,253,382.3,245.6,382.3z"/>
</g>
<path fill="#F0B63D" d="M326.3,248.4c42.7-28.5,69.6-53.8,138.6-26.4c-19.5,8.4-64.8,32.2-23.7,126c52.2,94.4,30,149.7-122.3,129.7
	c60.1-26.9,66.9-47.4,70.1-64.3C389,359.1,318.9,284.8,326.3,248.4z"/>
<text transform="matrix(1 0 0 1 46.1263 569.0665)" font-family="'Comfortaa-Regular'" font-size="63.2558">Cuidadoras 365</text>
<text transform="matrix(1 0 0 1 52.7143 604.1458)" fill="#66CCFF" font-family="'Comfortaa-Regular'" font-size="28.7456">Tu portal para servicios del hogar</text>
</svg>
